<?xml version="1.0" standalone="no"?>
<!DOCTYPE svg PUBLIC "-//W3C//DTD SVG 20010904//EN"
 "http://www.w3.org/TR/2001/REC-SVG-20010904/DTD/svg10.dtd">
<svg version="1.0" xmlns="http://www.w3.org/2000/svg"
 width="500.000000pt" height="500.000000pt" viewBox="0 0 500.000000 500.000000"
 preserveAspectRatio="xMidYMid meet">
<metadata>
Created by potrace 1.14, written by Peter Selinger 2001-2017
</metadata>
<g transform="translate(0.000000,500.000000) scale(0.100000,-0.100000)"
fill="#000000" stroke="none">
<path d="M3605 3835 c-5 -2 -23 -6 -40 -10 -23 -5 -210 -186 -757 -732 l-727
-727 -80 77 c-45 43 -106 89 -139 106 -116 59 -256 61 -369 6 -69 -34 -95 -68
-91 -117 2 -34 -3 -44 -52 -94 -127 -129 -304 -237 -435 -265 -33 -7 -68 -16
-78 -21 -25 -13 -49 -74 -42 -107 4 -18 178 -199 543 -564 517 -516 539 -537
575 -537 53 0 94 40 106 105 27 142 112 289 260 444 53 54 65 63 89 58 39 -7
88 17 112 55 55 90 74 228 44 329 -26 87 -50 126 -134 213 l-79 82 720 720
c395 395 726 733 734 751 43 91 -19 208 -120 225 -16 3 -34 4 -40 3z m63 -91
c33 -23 45 -60 32 -98 -7 -21 -243 -264 -725 -746 l-715 -715 -65 65 -65 65
723 723 c682 682 724 722 757 722 20 0 46 -7 58 -16z m-1838 -1259 c41 -21
117 -89 298 -268 133 -133 258 -264 277 -292 49 -72 72 -168 57 -247 -14 -76
-48 -148 -70 -148 -19 0 -922 898 -922 917 0 12 62 48 110 64 14 5 63 7 110 5
70 -2 95 -7 140 -31z m-307 -203 l58 -58 -88 -85 c-106 -101 -208 -171 -312
-212 -63 -25 -91 -31 -163 -31 -83 -1 -88 0 -118 29 -49 47 -39 64 55 90 44
12 98 29 120 39 69 30 228 143 300 214 39 38 75 69 80 70 6 1 37 -24 68 -56z
m708 -827 c-158 -163 -240 -305 -288 -494 -12 -48 -28 -49 -41 -3 -28 93 -8
198 54 279 30 39 30 59 3 74 -18 9 -25 7 -49 -16 -41 -39 -80 -125 -94 -205
l-12 -71 -56 58 c-34 36 -58 72 -63 92 -23 108 45 263 196 443 49 58 57 73 48
89 -16 31 -43 22 -90 -28 -121 -130 -214 -304 -231 -431 -3 -19 -37 11 -212
187 -204 204 -209 210 -180 215 105 21 224 78 292 139 27 25 29 53 4 66 -15 8
-33 0 -90 -39 -91 -62 -170 -92 -249 -94 l-63 -1 -52 53 -53 52 42 0 c132 0
336 109 509 273 l79 76 327 -327 328 -327 -59 -60z"/>
</g>
</svg>
